<mxfile host="app.diagrams.net" modified="2023-07-07T02:54:35.675Z" agent="Mozilla/5.0 (Windows NT 10.0; Win64; x64) AppleWebKit/537.36 (KHTML, like Gecko) Chrome/114.0.0.0 Safari/537.36" version="21.6.1" etag="i4UHov-abBY_ePkXQfJq" type="github">
  <diagram name="PÃ¡gina-1" id="tlrUNl6hbg_kSGOZaLl5">
    <mxGraphModel>
      <root>
        <mxCell id="0" />
        <mxCell id="1" parent="0" />
      </root>
    </mxGraphModel>
  </diagram>
</mxfile>
